<svg width="202" height="205" viewBox="0 0 202 205" fill="none" xmlns="http://www.w3.org/2000/svg">
<path d="M111.104 35.062L118.881 27.285C134.153 12.013 159.016 11.635 174.376 26.819C180.196 32.5853 184.064 40.0299 185.436 48.1071C186.808 56.1844 185.615 64.4885 182.025 71.853C180.303 75.371 179.723 79.3389 180.365 83.2026C181.008 87.0663 182.841 90.6328 185.609 93.404C190.699 88.3024 194.733 82.2479 197.482 75.5866C200.231 68.9252 201.641 61.7875 201.631 54.5812C201.62 47.375 200.191 40.2413 197.423 33.5878C194.655 26.9342 190.603 20.8912 185.499 15.804C164.021 -5.55298 129.158 -5.12798 107.74 16.289L33.612 90.415L27.518 84.321C11.987 68.79 11.888 43.403 27.693 28.148C33.5433 22.5187 40.9967 18.8439 49.0245 17.6309C57.0523 16.4179 65.2586 17.7265 72.511 21.376C75.8212 23.0723 79.5828 23.6791 83.2585 23.1098C86.9342 22.5405 90.336 20.8242 92.978 18.206L93.167 18.018C93.2258 17.9596 93.2724 17.8901 93.3043 17.8135C93.3361 17.737 93.3525 17.6549 93.3525 17.572C93.3525 17.4891 93.3361 17.407 93.3043 17.3305C93.2724 17.254 93.2258 17.1845 93.167 17.126C82.9643 7.17963 69.2922 1.59278 55.0435 1.54761C40.7949 1.50245 27.0875 7.00251 16.822 16.884C-5.29102 38.231 -5.212 73.729 16.522 95.463L90.628 169.569L82.756 177.441C67.484 192.713 42.62 193.091 27.261 177.907C21.4409 172.141 17.5732 164.696 16.2011 156.619C14.8291 148.542 16.0215 140.238 19.611 132.873C21.3331 129.355 21.9135 125.387 21.2712 121.524C20.6288 117.66 18.7957 114.093 16.028 111.322C10.9383 116.424 6.90366 122.478 4.15454 129.139C1.40541 135.801 -0.00430066 142.938 0.0059145 150.145C0.0161297 157.351 1.44607 164.485 4.21408 171.138C6.98208 177.792 11.0339 183.835 16.138 188.922C37.615 210.28 72.479 209.856 93.897 188.438L168.121 114.213L174.238 120.33C189.51 135.602 189.888 160.465 174.704 175.824C168.938 181.645 161.493 185.512 153.416 186.885C145.339 188.257 137.035 187.064 129.67 183.474C126.151 181.751 122.181 181.17 118.316 181.814C114.451 182.457 110.883 184.292 108.112 187.062C113.214 192.152 119.268 196.187 125.929 198.936C132.591 201.685 139.728 203.095 146.935 203.085C154.141 203.074 161.275 201.644 167.928 198.876C174.582 196.108 180.625 192.056 185.712 186.952C207.07 165.475 206.645 130.611 185.228 109.194L111.104 35.062ZM101.694 158.498L44.681 101.485L100.034 46.133L157.047 103.146L101.694 158.498Z" fill="#3AA3CC"/>
</svg>
